<svg xmlns="http://www.w3.org/2000/svg" viewBox="0 0 512 512" width="512" height="512">
  <rect width="512" height="512" fill="#ffffff"></rect>
  <circle cx="188" cy="332" r="150" fill="none" stroke="#141310" stroke-width="13" stroke-linecap="round" stroke-dasharray="0.1 30"></circle>
  <circle cx="188" cy="332" r="140" fill="#141310"></circle>
  <circle cx="188" cy="332" r="112" fill="#ffffff"></circle>
  <g transform="translate(188,332) rotate(42)">
    <rect x="-23" y="-252" width="46" height="256" fill="#141310"></rect>
    <rect x="-37" y="-324" width="74" height="84" rx="18" fill="#141310"></rect>
    <circle cx="-53" cy="-262" r="12" fill="#141310"></circle>
    <circle cx="-53" cy="-296" r="12" fill="#141310"></circle>
    <circle cx="53" cy="-262" r="12" fill="#141310"></circle>
    <circle cx="53" cy="-296" r="12" fill="#141310"></circle>
    <rect x="-30" y="44" width="60" height="16" rx="3" fill="#141310"></rect>
    <rect x="-16" y="110" width="32" height="20" rx="4" fill="#141310"></rect>
    <g stroke="#141310" stroke-width="4.5">
      <line x1="-13" y1="-316" x2="-13" y2="120"></line>
      <line x1="-4.3" y1="-316" x2="-4.3" y2="120"></line>
      <line x1="4.3" y1="-316" x2="4.3" y2="120"></line>
      <line x1="13" y1="-316" x2="13" y2="120"></line>
    </g>
  </g>
</svg>